<svg width="36" height="36" viewBox="0 0 36 36" fill="none" xmlns="http://www.w3.org/2000/svg">
<path d="M11.8125 21.2045C11.3182 21.2045 10.8942 21.032 10.5405 20.6868C10.1911 20.3374 10.0185 19.9134 10.0227 19.4148C10.0185 18.929 10.1911 18.5135 10.5405 18.1683C10.8942 17.8232 11.3182 17.6506 11.8125 17.6506C12.2812 17.6506 12.6946 17.8232 13.0526 18.1683C13.4148 18.5135 13.598 18.929 13.6023 19.4148C13.598 19.7472 13.5107 20.0497 13.3402 20.3224C13.174 20.5909 12.9567 20.8061 12.6882 20.968C12.4197 21.1257 12.1278 21.2045 11.8125 21.2045ZM17.6175 21.2045C17.1232 21.2045 16.6992 21.032 16.3455 20.6868C15.9961 20.3374 15.8235 19.9134 15.8277 19.4148C15.8235 18.929 15.9961 18.5135 16.3455 18.1683C16.6992 17.8232 17.1232 17.6506 17.6175 17.6506C18.0862 17.6506 18.4996 17.8232 18.8576 18.1683C19.2198 18.5135 19.403 18.929 19.4073 19.4148C19.403 19.7472 19.3157 20.0497 19.1452 20.3224C18.979 20.5909 18.7617 20.8061 18.4932 20.968C18.2247 21.1257 17.9328 21.2045 17.6175 21.2045ZM23.4225 21.2045C22.9282 21.2045 22.5042 21.032 22.1505 20.6868C21.8011 20.3374 21.6285 19.9134 21.6327 19.4148C21.6285 18.929 21.8011 18.5135 22.1505 18.1683C22.5042 17.8232 22.9282 17.6506 23.4225 17.6506C23.8912 17.6506 24.3046 17.8232 24.6626 18.1683C25.0248 18.5135 25.208 18.929 25.2123 19.4148C25.208 19.7472 25.1207 20.0497 24.9502 20.3224C24.784 20.5909 24.5667 20.8061 24.2982 20.968C24.0297 21.1257 23.7378 21.2045 23.4225 21.2045Z" fill="#DDDDDD"/>
</svg>
